:version 1.10
:name ASF
:units
  mass 1
  length 1
  angle deg
:documentation
  ASF file generated by Kaydara
:root
  axis xyz
  order  tx ty tz rx ry rz
  position 0 0 0
  orientation 0 0 0
:bonedata
  begin
    id 1
    name RightUpLegDummy
    direction -0.718183 -0.695806 0.00816078
    length 4.904
    axis 0 0 0 xyz
  end
  begin
    id 2
    name RightUpLeg
    direction -0.0736652 -0.994202 0.0783343
    length 17.4976
    axis -2.72909 -3.00389 -4.00133 xyz
    dof rx ry rz
  end
  begin
    id 3
    name RightLeg
    direction -0.0389037 -0.994596 -0.0962598
    length 16.5821
    axis 3.95836 -18.5909 -4.46993 xyz
    dof rx ry rz
  end
  begin
    id 4
    name RightFoot
    direction -0.311643 -0.412678 0.855906
    length 3.77069
    axis -1.99483 -18.8351 -3.27644 xyz
    dof rx ry rz
  end
  begin
    id 5
    name RightToes
    direction -0.317852 0.0389852 0.947339
    length 3.85082
    axis -2.00228 -18.1713 -3.25211 xyz
    dof rx ry rz
  end
  begin
    id 6
    name SpineDummy
    direction 8.3039e-015 1 4.44677e-016
    length 4.6813
    axis 0 0 0 xyz
  end
  begin
    id 7
    name Spine
    direction -0.000262373 0.999988 0.00493267
    length 10.1015
    axis -0.00246081 0.00062579 0.0150362 xyz
    dof rx ry rz
  end
  begin
    id 8
    name Spine1
    direction 0 0 0
    length 0
    axis -0.00349562 0.000650293 0.0196666 xyz
    dof rx ry rz
  end
  begin
    id 9
    name HEadDummy
    direction -0.000343232 0.999999 0.00123745
    length 3.43865
    axis -0.00349562 0.000650293 0.0196666 xyz
  end
  begin
    id 10
    name HEad
    direction -0.0461221 0.980933 0.188796
    length 5.12695
    axis -0.00351404 -7.04812 0.0199272 xyz
    dof rx ry rz
  end
  begin
    id 11
    name LeftShoulder1Dummy
    direction 0.998904 -0.0399089 -0.0244534
    length 3.5433
    axis -0.00349562 0.000650293 0.0196666 xyz
  end
  begin
    id 12
    name LeftShoulder1
    direction 0.99951 1.64443e-005 0.0312999
    length 4.05031
    axis -0.00349562 0.000650293 0.0196666 xyz
    dof rx ry rz
  end
  begin
    id 13
    name LeftArm
    direction 0.984791 0.0515299 0.165927
    length 12.9126
    axis -64.823 -10.7743 5.20463 xyz
    dof rx ry rz
  end
  begin
    id 14
    name LeftForeArm
    direction 0.984968 0.0534808 0.16425
    length 10.8596
    axis -30.0462 -7.70601 1.87451 xyz
    dof rx ry rz
  end
  begin
    id 15
    name LeftHand
    direction 0.975871 0.0289682 0.216418
    length 6.62295
    axis -20.1348 -6.98077 1.86072 xyz
    dof rx ry rz
  end
  begin
    id 16
    name RightShoulderDummy
    direction -0.998877 -0.0405946 -0.0244307
    length 3.5433
    axis -0.00349562 0.000650293 0.0196666 xyz
  end
  begin
    id 17
    name RightShoulder
    direction -0.998933 -0.0249743 -0.0388558
    length 4.05031
    axis -0.0205316 -4.02113 1.41395 xyz
    dof rx ry rz
  end
  begin
    id 18
    name RightArm
    direction -0.997559 0.068664 0.0127103
    length 12.9638
    axis -67.3882 1.84188 -6.15987 xyz
    dof rx ry rz
  end
  begin
    id 19
    name RightForeArm
    direction -0.991508 0.0912848 0.0926241
    length 10.8312
    axis -22.1975 3.41087 -4.28711 xyz
    dof rx ry rz
  end
  begin
    id 20
    name RightHand
    direction -0.989262 0.0600788 0.133232
    length 6.57864
    axis -12.2911 2.17515 -4.39675 xyz
    dof rx ry rz
  end
  begin
    id 21
    name LeftUpLegDummy
    direction 0.718183 -0.695806 0.00816078
    length 4.904
    axis 0 0 0 xyz
  end
  begin
    id 22
    name LeftUpLeg
    direction 0.0831398 -0.99469 0.0606531
    length 17.4976
    axis -1.71016 2.29552 4.63832 xyz
    dof rx ry rz
  end
  begin
    id 23
    name LeftLeg
    direction 0.0498442 -0.991778 -0.117862
    length 16.5821
    axis 5.13757 15.5727 5.13348 xyz
    dof rx ry rz
  end
  begin
    id 24
    name LeftFoot
    direction 0.269026 -0.433896 0.85986
    length 3.77069
    axis -0.576502 15.6961 4.10267 xyz
    dof rx ry rz
  end
  begin
    id 25
    name LeftToes
    direction 0.277311 0.0251143 0.960452
    length 3.85048
    axis -0.576502 15.6961 4.10267 xyz
    dof rx ry rz
  end
:hierarchy
  begin
    root RightUpLegDummy SpineDummy LeftUpLegDummy
    RightUpLegDummy RightUpLeg
    RightUpLeg RightLeg
    RightLeg RightFoot
    RightFoot RightToes
    SpineDummy Spine
    Spine Spine1
    Spine1 HEadDummy LeftShoulder1Dummy RightShoulderDummy
    HEadDummy HEad
    LeftShoulder1Dummy LeftShoulder1
    LeftShoulder1 LeftArm
    LeftArm LeftForeArm
    LeftForeArm LeftHand
    RightShoulderDummy RightShoulder
    RightShoulder RightArm
    RightArm RightForeArm
    RightForeArm RightHand
    LeftUpLegDummy LeftUpLeg
    LeftUpLeg LeftLeg
    LeftLeg LeftFoot
    LeftFoot LeftToes
  end

:SAMPLES-PER-SECOND 30
:FULLY-SPECIFIED
:DEGREES
78
root  -1.15553 5.94992 15.3685 -47.0749 -4.03665 2.66997
RightUpLeg  -85.5277 -4.62844 2.02899
RightLeg  86.4937 15.8807 -1.31221
RightFoot  28.8834 0.305948 -1.10141
RightToes  5.82077e-011 -3.18055e-015 -2.98177e-016
Spine  28.2274 4.26065 2.91579
Spine1  20.4467 2.2403 2.00398
HEad  -11.768 -1.23403 5.48402
LeftShoulder1  -3.88251e-019 9.70628e-020 -3.87848e-018
LeftArm  -27.427 75.2608 -71.7308
LeftForeArm  20.8851 -0.639359 -2.13471
LeftHand  -13.3868 -11.7015 78.6081
RightShoulder  5.34092 10.2246 24.5955
RightArm  -2.84331 -63.0891 20.5114
RightForeArm  6.25555 2.51036 -6.11923
RightHand  -7.65078 6.08307 -67.8134
LeftUpLeg  -87.3543 7.63582 -0.528501
LeftLeg  91.5168 -13.8672 5.45855
LeftFoot  35.1455 0.333625 -0.515229
LeftToes  5.91571e-011 -3.44359e-011 -3.93244e-011
79
root  -1.09347 5.92046 15.3713 -47.3919 -4.58248 2.56105
RightUpLeg  -85.5545 -5.34648 3.69554
RightLeg  85.225 15.7996 -2.9429
RightFoot  26.2215 -0.103175 -0.0215536
RightToes  5.82077e-011 -3.18055e-015 -2.98177e-016
Spine  28.2366 4.55008 2.90106
Spine1  20.6273 2.33537 2.54119
HEad  -11.8612 -1.96686 5.71713
LeftShoulder1  -3.88251e-019 9.70628e-020 -3.87848e-018
LeftArm  -29.5216 75.2066 -74.0015
LeftForeArm  20.6215 -0.606501 -1.9877
LeftHand  -13.577 -11.7813 79.1379
RightShoulder  5.31449 10.2007 24.4934
RightArm  -2.08938 -62.7147 19.86
RightForeArm  6.29608 2.72694 -5.88192
RightHand  -7.877 6.46162 -67.6417
LeftUpLeg  -87.2177 8.12039 -0.312064
LeftLeg  91.7175 -13.8737 5.33884
LeftFoot  35.1789 0.0921155 0.0244986
LeftToes  5.91571e-011 -3.44359e-011 -3.93244e-011
80
root  -1.03081 5.89555 15.3719 -47.6964 -4.8418 2.4455
RightUpLeg  -85.8187 -6.1308 4.99166
RightLeg  83.4613 15.6287 -4.62269
RightFoot  24.4059 -0.0570121 -0.134292
RightToes  5.82077e-011 -3.18055e-015 -2.98177e-016
Spine  28.3714 4.66602 2.80977
Spine1  20.6698 2.19066 2.95083
HEad  -12.3881 -2.30437 5.93546
LeftShoulder1  -3.88251e-019 9.70628e-020 -3.87848e-018
LeftArm  -30.5687 75.3743 -75.3771
LeftForeArm  20.2178 -0.612035 -2.05189
LeftHand  -13.8116 -11.9026 79.7043
RightShoulder  5.29437 10.1827 24.415
RightArm  -1.94282 -62.4299 19.6732
RightForeArm  6.95716 2.73448 -5.88241
RightHand  -8.27325 7.06884 -67.6161
LeftUpLeg  -87.0279 8.26024 -0.23477
LeftLeg  91.8423 -13.8791 5.28933
LeftFoot  35.1498 -0.094727 0.441559
LeftToes  5.91571e-011 -3.44359e-011 -3.93244e-011
81
root  -0.984804 5.91846 15.3425 -47.5581 -5.46508 2.19219
RightUpLeg  -86.3534 -6.15207 6.08568
RightLeg  81.7564 15.4627 -5.24546
RightFoot  23.3908 0.26075 -1.08182
RightToes  5.82077e-011 -3.18055e-015 -2.98177e-016
Spine  28.442 4.68514 3.13453
Spine1  20.3014 2.14307 3.06284
HEad  -13.2423 -2.21914 6.22516
LeftShoulder1  -3.88251e-019 9.70628e-020 -3.87848e-018
LeftArm  -31.0127 75.7338 -76.0168
LeftForeArm  19.9422 -0.632952 -2.18439
LeftHand  -13.9084 -11.9051 80.0934
RightShoulder  5.33281 10.228 24.5444
RightArm  -1.76089 -62.2594 19.2871
RightForeArm  7.58422 2.91654 -6.06182
RightHand  -8.25142 7.12426 -67.2393
LeftUpLeg  -87.1411 8.62703 0.267863
LeftLeg  91.9206 -13.866 5.06606
LeftFoot  35.0838 -0.163635 0.595847
LeftToes  5.91571e-011 -3.44359e-011 -3.93244e-011
82
root  -0.943023 5.9293 15.3229 -47.5104 -5.77177 2.19441
RightUpLeg  -86.9255 -5.70675 6.03814
RightLeg  80.8973 15.4206 -4.97573
RightFoot  22.5134 0.473164 -1.75751
RightToes  5.82077e-011 -3.18055e-015 -2.98177e-016
Spine  28.6107 4.65327 3.1998
Spine1  19.9799 2.14386 2.9419
HEad  -14.1554 -2.08339 6.58797
LeftShoulder1  -3.88251e-019 9.70628e-020 -3.87848e-018
LeftArm  -31.4929 75.9604 -76.4173
LeftForeArm  19.9049 -0.637848 -2.21301
LeftHand  -13.9755 -11.9162 80.3302
RightShoulder  5.39864 10.2902 24.7929
RightArm  -1.44017 -62.056 18.7486
RightForeArm  7.89188 3.06414 -6.17555
RightHand  -8.03062 6.86456 -66.9088
LeftUpLeg  -87.1639 8.92596 0.396729
LeftLeg  91.9767 -13.8532 4.8659
LeftFoot  35.0605 -0.169736 0.609673
LeftToes  5.91571e-011 -3.44359e-011 -3.93244e-011
